<?xml version="1.0" encoding="iso-8859-1"?>
<!-- Generator: Adobe Illustrator 19.0.0, SVG Export Plug-In . SVG Version: 6.00 Build 0)  -->
<svg version="1.1" id="Layer_1" xmlns="http://www.w3.org/2000/svg" xmlns:xlink="http://www.w3.org/1999/xlink" x="0px" y="0px"
	 viewBox="0 0 512.131 512.131" style="enable-background:new 0 0 512.131 512.131;" xml:space="preserve">
<g transform="translate(-1)">
	<path style="fill:#445793;" d="M115.89,326.661h79.484L489.412,257.7l-11.776-38.118L95.481,306.534l4.07,17.081
		C104.705,325.557,110.214,326.661,115.89,326.661"/>
	<g>
		<path style="fill:#6581C9;" d="M513.131,397.281H71.902c-38.303,0-73.322-32.406-70.771-70.621
			c2.322-34.781,35.911-61.793,70.771-61.793c6.762,0,12.641,3.84,15.554,9.463l14.963,29.802l0,0
			c8.351,13.974,23.437,22.528,39.724,22.528h370.988V397.281z"/>
		<path style="fill:#6581C9;" d="M71.899,264.868c6.771,0,12.641,3.84,15.554,9.463l14.963,29.802
			c1.298,2.163,2.807,4.149,4.405,6.047l397.974-97.227l-8.377-34.304c-2.41-6.956-12.138-185.15-428.403,86.404
			C69.313,264.982,70.593,264.868,71.899,264.868"/>
	</g>
	<path style="fill:#445793;" d="M71.752,335.488c0,9.754-7.901,17.655-17.655,17.655s-17.655-7.901-17.655-17.655
		s7.901-17.655,17.655-17.655S71.752,325.734,71.752,335.488"/>
</g>
<g>
</g>
<g>
</g>
<g>
</g>
<g>
</g>
<g>
</g>
<g>
</g>
<g>
</g>
<g>
</g>
<g>
</g>
<g>
</g>
<g>
</g>
<g>
</g>
<g>
</g>
<g>
</g>
<g>
</g>
</svg>
