<?xml version="1.0" encoding="utf-8"?>
<!-- Svg Vector Icons : http://www.onlinewebfonts.com/icon -->
<!DOCTYPE svg PUBLIC "-//W3C//DTD SVG 1.1//EN" "http://www.w3.org/Graphics/SVG/1.1/DTD/svg11.dtd">
<svg version="1.1" xmlns="http://www.w3.org/2000/svg" xmlns:xlink="http://www.w3.org/1999/xlink" x="0px" y="0px" viewBox="0 0 1000 1000" enable-background="new 0 0 1000 1000" xml:space="preserve">
<metadata> Svg Vector Icons : http://www.onlinewebfonts.com/icon </metadata>
<g><path d="M500,990C229.4,990,10,770.6,10,500C10,229.4,229.4,10,500,10c270.6,0,490,219.4,490,490C990,770.6,770.6,990,500,990z M909.8,654.7H787.6c-38.6,123.4-126,224.6-239.5,280.5C714.5,917,852.6,806,909.8,654.7z M757.9,512.9c0-39.2-5.3-78.2-14.7-116.1H525.8v206.3h222.7C754.5,574,757.9,543.9,757.9,512.9z M474.2,654.7H270.6c37.7,99.5,111.2,192.9,204.2,242.6L474.2,654.7z M474.2,603.2V396.8H253.8c-7.6,33.8-11.7,68.4-11.7,103.2c0,35.6,4.3,70.1,12.3,103.2H474.2z M474.2,345.3V95.8c-94.6,53.6-168.3,141.3-205.5,249.4H474.2z M727.5,345.3C689.2,240.4,617.2,149.4,525.8,97v248.3H727.5z M525.8,654.7v249.2c97.6-52.8,173.1-141.7,209-249.2H525.8z M474.2,937.4v-9.5V937.4c-119.5-50.5-213.5-159.7-257.1-282.7H90.2C149.9,812.7,297.9,927.1,474.2,937.4z M74.7,395.2c-8.6,34.2-13.2,67.9-13.2,104.8c0,35.6,4.7,70,12.7,103.2h128.1c-7.6-33.2-11.9-67.6-11.9-103.2c0-34.8,4.2-69.3,11.5-103.2H87.4C82.9,396.8,78.4,397.3,74.7,395.2z M90.2,345.3h125.4c38.5-117.7,130.9-222.8,234.2-281.7C289.8,86.4,145.7,198.3,90.2,345.3z M545.4,64.5c108.2,55.9,193,160,235,280.8h129.4C852.3,193.2,713,81.8,545.4,64.5z M795.7,396.8c9,37.9,13.8,76.8,13.8,116.1c0,30.9-3.3,61-8.9,90.3h125.1c8-33.1,12.7-67.5,12.7-103.2c0-35.6-4.7-70-12.7-103.2H795.7z"/></g>
</svg>